<?xml version="1.0" encoding="UTF-8"?>
<!DOCTYPE svg PUBLIC "-//W3C//DTD SVG 1.1//EN" "http://www.w3.org/Graphics/SVG/1.1/DTD/svg11.dtd">
<!-- Creator: CorelDRAW -->
<svg xmlns="http://www.w3.org/2000/svg" xml:space="preserve" width="84.5684mm" height="84.5842mm" version="1.1" style="shape-rendering:geometricPrecision; text-rendering:geometricPrecision; image-rendering:optimizeQuality; fill-rule:evenodd; clip-rule:evenodd"
viewBox="0 0 2720.58 2721.09"
 xmlns:xlink="http://www.w3.org/1999/xlink"
 xmlns:xodm="http://www.corel.com/coreldraw/odm/2003">
 <defs>
  <style type="text/css">
   <![CDATA[
    .fil0 {fill:#FEFEFE}
   ]]>
  </style>
 </defs>
 <g id="Camada_x0020_1">
  <metadata id="CorelCorpID_0Corel-Layer"/>
  <g id="_2290563381840">
   <path class="fil0" d="M1645.38 1726.48c34.24,30.37 84.55,68.56 102.99,114.16 -159.35,120.02 -57.42,136.71 130.08,332.57l465.6 464.61c137.32,146.13 132.78,78.44 255.14,-38.37 174.5,-166.58 168.54,-132.51 -67.91,-364.47 -44.45,-43.61 -76.35,-76.65 -120.01,-118.56l-402.06 -403.66c-67.16,-72.65 -101.75,-52.23 -168.88,35.62 -44.53,-17.66 -85.12,-69.23 -113.89,-102.85 9.94,-25.74 71.44,-100.61 96.7,-139.94 104.23,-162.27 157.2,-369.19 147.04,-570.93 -26.76,-531.45 -466.22,-939.33 -994.41,-934.61 -406.62,3.63 -732.54,249.67 -883.69,568.4 -54.64,115.21 -88.93,251.43 -91.84,395.96 -15.56,773.5 818.56,1266 1498.69,863.68 43.89,-25.96 116.83,-90.39 146.47,-101.6zm158.98 214.12l644.07 648.13 140.33 -134.48 -646.28 -651.74c-39.04,20.07 -119.71,101.68 -138.12,138.09zm-945.69 -1821.92c-439.93,69.09 -820.33,470.67 -739.73,1000.94 65.2,428.95 471.17,812.86 996.87,733 439.08,-66.7 813.39,-468.72 737.3,-994.41 -63.25,-436.95 -477.72,-820.68 -994.43,-739.54z"/>
   <path class="fil0" d="M599.01 1451.39c24.45,-120.01 -212.89,-181.13 -166.04,-541.55 30.92,-237.81 176.66,-297.51 170.77,-364.91 -17.72,-202.72 -476.04,286.16 -191.78,779.54 35.75,62.04 102.22,184.19 187.05,126.92z"/>
  </g>
 </g>
</svg>
